<?xml version="1.0" encoding="utf-8"?>
<!-- Generator: Adobe Illustrator 24.3.0, SVG Export Plug-In . SVG Version: 6.00 Build 0)  -->
<svg version="1.1" id="Layer_1" xmlns="http://www.w3.org/2000/svg" xmlns:xlink="http://www.w3.org/1999/xlink" x="0px" y="0px"
	 viewBox="0 0 42.5 42.5" style="enable-background:new 0 0 42.5 42.5;" xml:space="preserve">
<style type="text/css">
	.st0{fill:#90A3BF;}
</style>
<path class="st0" d="M21.2,1.4c-11,0-19.8,8.9-19.8,19.8c0,11,8.9,19.8,19.8,19.8s19.8-8.9,19.8-19.8C41.1,10.3,32.2,1.4,21.2,1.4z
	 M10,10c2.9-2.9,6.8-4.6,11.2-4.6c8.1,0,14.8,6.1,15.8,13.9h-4c-0.9-5.6-5.8-9.9-11.7-9.9c-5.9,0-10.8,4.3-11.7,9.9h-4
	C6,15.7,7.6,12.5,10,10z M21.2,29.2c-2.2,0-4.2-0.9-5.6-2.3c-1.4-1.4-2.3-3.4-2.3-5.6c0-2.2,0.9-4.2,2.3-5.6
	c1.4-1.4,3.4-2.3,5.6-2.3c4.4,0,7.9,3.6,7.9,7.9c0,2.2-0.9,4.2-2.3,5.6C25.4,28.3,23.5,29.2,21.2,29.2z M5.5,23.2h4
	c0.8,5,4.8,8.9,9.7,9.7v4c-3.6-0.5-6.8-2.1-9.2-4.5C7.6,30,6,26.8,5.5,23.2z M32.5,32.5c-2.4,2.4-5.7,4.1-9.2,4.5v-4
	c5-0.8,8.9-4.8,9.7-9.7h4C36.5,26.8,34.9,30,32.5,32.5z"/>
</svg>
