<?xml version="1.0" encoding="utf-8"?>
<!-- Generator: Adobe Illustrator 24.3.0, SVG Export Plug-In . SVG Version: 6.00 Build 0)  -->
<svg version="1.1" id="Layer_1" xmlns="http://www.w3.org/2000/svg" xmlns:xlink="http://www.w3.org/1999/xlink" x="0px" y="0px"
	 viewBox="0 0 42.5 42.5" style="enable-background:new 0 0 42.5 42.5;" xml:space="preserve">
<style type="text/css">
	.st0{fill:#90A3BF;}
</style>
<path class="st0" d="M40.3,15.6l-3.7-1.8c-0.7-0.3-1.5-0.1-1.9,0.6c-0.4,0.7-0.1,1.5,0.6,1.9l2.9,1.5v8.8l-6.9,0V7.6
	c0-3.7-2.5-5.5-5.5-5.5H11.1C8,2.1,5.6,3.9,5.6,7.6v30H2.8c-0.8,0-1.4,0.6-1.4,1.4c0,0.8,0.6,1.4,1.4,1.4h31.4
	c0.8,0,1.4-0.6,1.4-1.4c0-0.8-0.6-1.4-1.4-1.4h-2.8v-8.3l8.3,0c0.8,0,1.4-0.6,1.4-1.4V16.9C41.1,16.3,40.8,15.9,40.3,15.6z
	 M10.2,11.1c0-2.6,1.6-3.5,3.5-3.5h9.7c1.9,0,3.5,0.9,3.5,3.5v2.3c0,2.5-1.6,3.5-3.5,3.5h-9.6c-1.9,0-3.5-0.9-3.5-3.5V11.1z
	 M11.1,21h5.5c0.8,0,1.4,0.6,1.4,1.4s-0.6,1.4-1.4,1.4h-5.5c-0.8,0-1.4-0.6-1.4-1.4S10.3,21,11.1,21z"/>
</svg>
