<?xml version="1.0" encoding="utf-8"?>
<!-- Generator: Adobe Illustrator 24.3.0, SVG Export Plug-In . SVG Version: 6.00 Build 0)  -->
<svg version="1.1" id="Layer_1" xmlns="http://www.w3.org/2000/svg" xmlns:xlink="http://www.w3.org/1999/xlink" x="0px" y="0px"
	 viewBox="0 0 42.5 42.5" style="enable-background:new 0 0 42.5 42.5;" xml:space="preserve">
<style type="text/css">
	.st0{fill:#90A3BF;}
</style>
<g>
	<path class="st0" d="M15.1,20.2c0.2,0,0.3,0,0.4,0c0,0,0.1,0,0.1,0c0,0,0,0,0,0c5.1-0.2,9-4.3,9.1-9.4c0-5.2-4.2-9.4-9.4-9.4
		c-5.2,0-9.4,4.2-9.4,9.4C5.9,15.9,9.9,20.1,15.1,20.2z"/>
	<path class="st0" d="M25.4,25.5c-5.5-3.7-14.5-3.7-20.1,0c-2.5,1.7-3.9,4-3.9,6.4s1.4,4.7,3.9,6.4c2.8,1.9,6.4,2.8,10.1,2.8
		c3.6,0,7.3-0.9,10.1-2.8c2.5-1.7,3.9-3.9,3.9-6.4C29.3,29.4,27.9,27.2,25.4,25.5z"/>
	<path class="st0" d="M30.5,19.7c0.1,0,0.2,0,0.3,0h0.1c0,0,0,0,0,0c3.8-0.5,6.5-3.8,6.2-7.7c-0.3-3.9-3.8-6.8-7.7-6.5
		c-0.9,0.1-1.8,0.3-2.5,0.7c0.8,1.2,1.4,2.7,1.5,4.3c0.2,3-0.9,5.7-3,7.5C26.8,19.2,28.6,19.8,30.5,19.7z"/>
	<path class="st0" d="M38.5,25.1c-3.4-2.7-8.9-3.6-13.3-2.3c1.7,0.6,3.2,1.4,4.6,2.5c2.3,1.9,3.5,4.2,3.3,6.7
		c-0.2,1.7-1,3.3-2.4,4.6c2.5,0.1,5-0.5,7-1.5c2.1-1.1,3.3-2.8,3.4-4.7C41.2,28.4,40.3,26.6,38.5,25.1z"/>
</g>
</svg>
