<?xml version="1.0" encoding="utf-8"?>
<!-- Generator: Adobe Illustrator 24.3.0, SVG Export Plug-In . SVG Version: 6.00 Build 0)  -->
<svg version="1.1" id="Layer_1" xmlns="http://www.w3.org/2000/svg" xmlns:xlink="http://www.w3.org/1999/xlink" x="0px" y="0px"
	 viewBox="0 0 170.1 225" style="enable-background:new 0 0 170.1 225;" xml:space="preserve">
<style type="text/css">
	.st0{fill:#B2B2B2;}
</style>
<g>
	<path class="st0" d="M117,85.4l-16.7-16.7c-2.2-2.2-5.2-3.5-8.4-3.5H61.4c-6.5,0-11.8,5.3-11.8,11.8v70.9c0,6.5,5.3,11.8,11.8,11.8
		h47.3c6.5,0,11.8-5.3,11.8-11.8V93.7C120.5,90.6,119.2,87.6,117,85.4z M111.6,147.9c0,1.6-1.4,3-3,3H61.4l0,0c-1.6,0-3-1.4-3-3V77
		c0-1.6,1.4-3,3-3H91v14.8c0,3.3,2.7,5.9,5.9,5.9h14.8v53.2H111.6z"/>
	<circle class="st0" cx="73.2" cy="112.5" r="5.9"/>
	<path class="st0" d="M89.5,119.9c-1,0-1.9,0.5-2.5,1.3l-7.6,11l-2.2-3.5c-0.6-0.9-1.5-1.4-2.5-1.4s-2,0.5-2.5,1.4l-7.4,11.8
		c-0.6,0.9-0.6,2.1,0,3c0.6,1,1.5,1.5,2.6,1.5h8.9h5.9h7.4h13.3c1.1,0,2.1-0.6,2.6-1.6s0.5-2.2-0.2-3.1L92,121.1
		C91.4,120.4,90.5,119.9,89.5,119.9z"/>
</g>
</svg>
